<svg width="532" height="91" viewBox="0 0 532 91" fill="none" xmlns="http://www.w3.org/2000/svg">
<path d="M41.0109 67.5828L69.4031 45.5L41.0109 23.4172V67.5828Z" stroke="#E68328" stroke-width="6.30937" stroke-linecap="round" stroke-linejoin="round"/>
<path d="M6.30937 67.5828L34.7016 45.5L6.30937 23.4172V67.5828Z" stroke="#E68328" stroke-width="6.30937" stroke-linecap="round" stroke-linejoin="round"/>
<path d="M83.5369 72.6986C82.7452 72.6986 82.1164 72.4657 81.6507 72C81.1849 71.4877 80.9521 70.7891 80.9521 69.9042V38.3269C80.9521 33.3901 82.3493 29.5011 85.1437 26.6601C87.9382 23.8191 91.7806 22.3986 96.6708 22.3986C99.5119 22.3986 102.12 23.1438 104.495 24.6341C106.917 26.0779 108.734 28.0108 109.944 30.4326C111.155 27.9642 112.925 26.0081 115.254 24.5643C117.629 23.1205 120.284 22.3986 123.218 22.3986C128.108 22.3986 131.951 23.8191 134.745 26.6601C137.54 29.4546 138.937 33.3435 138.937 38.3269V69.9042C138.937 70.7891 138.681 71.4877 138.168 72C137.703 72.4657 137.074 72.6986 136.282 72.6986C135.444 72.6986 134.792 72.4657 134.326 72C133.907 71.4877 133.697 70.7891 133.697 69.9042V38.3269C133.697 34.6476 132.859 31.8298 131.182 29.8737C129.552 27.9176 126.851 26.9396 123.078 26.9396C119.772 26.9396 117.187 27.9642 115.324 30.0135C113.461 32.0161 112.529 34.7873 112.529 38.3269V69.9042C112.529 70.7891 112.296 71.4877 111.831 72C111.365 72.4657 110.736 72.6986 109.944 72.6986C109.153 72.6986 108.524 72.4657 108.058 72C107.639 71.4877 107.429 70.7891 107.429 69.9042V38.3269C107.429 34.8804 106.451 32.1326 104.495 30.0833C102.539 27.9875 99.9776 26.9396 96.8106 26.9396C93.0381 26.9396 90.3135 27.9176 88.6368 29.8737C87.0067 31.8298 86.1917 34.6476 86.1917 38.3269V69.9042C86.1917 70.7891 85.9588 71.4877 85.493 72C85.0273 72.4657 84.3753 72.6986 83.5369 72.6986ZM161.884 72.6986C157.32 72.6986 153.734 71.6973 151.125 69.6946C148.564 67.6919 147.283 64.9207 147.283 61.3811C147.283 57.888 148.634 55.1169 151.335 53.0676C154.083 51.0184 157.809 49.9937 162.513 49.9937C165.261 49.9937 167.682 50.3663 169.778 51.1115C171.921 51.8567 173.574 52.858 174.738 54.1155V49.6444C174.738 46.9897 173.854 44.9637 172.084 43.5665C170.361 42.1693 167.822 41.4707 164.469 41.4707C160.137 41.4707 156.388 42.4953 153.221 44.5446C152.429 45.0103 151.777 45.2432 151.265 45.2432C150.799 45.2432 150.334 45.0569 149.868 44.6843C149.356 44.2651 149.099 43.7295 149.099 43.0775C149.099 42.3789 149.402 41.7967 150.008 41.331C151.684 40.0269 153.803 39.0023 156.365 38.2571C158.973 37.4653 161.628 37.0694 164.329 37.0694C169.266 37.0694 173.085 38.1872 175.786 40.4228C178.534 42.6583 179.908 45.8021 179.908 49.854V69.974C179.908 71.7904 179.07 72.6986 177.393 72.6986C176.648 72.6986 176.043 72.4657 175.577 72C175.111 71.4877 174.878 70.8356 174.878 70.0439V67.5289C171.991 70.9754 167.659 72.6986 161.884 72.6986ZM162.513 68.4371C166.146 68.4371 169.103 67.7618 171.385 66.4111C173.667 65.0139 174.808 63.2208 174.808 61.0318C174.808 58.8428 173.737 57.1661 171.595 56.0018C169.499 54.7909 166.518 54.1854 162.652 54.1854C159.392 54.1854 156.877 54.8142 155.107 56.0717C153.338 57.2826 152.453 59.0524 152.453 61.3811C152.453 63.6632 153.314 65.4098 155.038 66.6207C156.761 67.8316 159.253 68.4371 162.513 68.4371ZM191.936 72.6986C191.145 72.6986 190.516 72.4657 190.05 72C189.631 71.4877 189.421 70.7891 189.421 69.9042V39.8639C189.421 38.979 189.631 38.3036 190.05 37.8379C190.469 37.3256 191.098 37.0694 191.936 37.0694C192.728 37.0694 193.334 37.3256 193.753 37.8379C194.218 38.3036 194.451 38.979 194.451 39.8639V44.0555C197.618 39.8639 201.996 37.768 207.585 37.768H209.332C210.217 37.768 210.915 37.9776 211.428 38.3968C211.94 38.7694 212.196 39.305 212.196 40.0036C212.196 40.7022 211.94 41.2378 211.428 41.6104C210.915 41.983 210.217 42.1693 209.332 42.1693H207.376C203.417 42.1693 200.273 43.3104 197.944 45.5925C195.662 47.828 194.521 50.8786 194.521 54.7443V69.9042C194.521 70.7425 194.288 71.4178 193.823 71.9301C193.403 72.4425 192.775 72.6986 191.936 72.6986ZM222.231 72.6986C221.439 72.6986 220.81 72.4657 220.345 72C219.926 71.4877 219.716 70.7891 219.716 69.9042V21.7698C219.716 20.8849 219.926 20.2096 220.345 19.7439C220.81 19.2315 221.439 18.9754 222.231 18.9754C223.023 18.9754 223.651 19.2315 224.117 19.7439C224.583 20.2096 224.816 20.8849 224.816 21.7698V53.0676L248.01 37.4187C248.475 37.0927 248.964 36.9297 249.477 36.9297C250.269 36.9297 250.851 37.2557 251.223 37.9078C251.456 38.2338 251.573 38.6762 251.573 39.2351C251.573 40.0735 251.2 40.7255 250.455 41.1912L237.95 49.5047C242.002 52.2526 245.145 55.2799 247.381 58.5867C249.617 61.8468 251.153 65.6426 251.992 69.974C252.132 70.7192 251.992 71.3712 251.573 71.9301C251.153 72.4425 250.548 72.6986 249.756 72.6986C248.219 72.6986 247.311 72.0466 247.032 70.7425C246.054 66.2714 244.61 62.7318 242.7 60.1236C240.837 57.4689 237.88 54.8374 233.828 52.2293L224.816 58.3072V69.9042C224.816 70.7425 224.583 71.4178 224.117 71.9301C223.698 72.4425 223.069 72.6986 222.231 72.6986ZM275.51 72.6986C269.455 72.6986 264.775 71.1384 261.468 68.0179C258.161 64.8974 256.508 60.4729 256.508 54.7443C256.508 49.2486 258.184 44.9404 261.538 41.82C264.891 38.6529 269.479 37.0694 275.3 37.0694C278.887 37.0694 282.077 37.6516 284.871 38.816C287.666 39.9337 289.831 41.5405 291.368 43.6364C292.952 45.6856 293.744 48.0376 293.744 50.6924C293.744 52.6485 293.185 54.1621 292.067 55.2333C290.996 56.3045 289.505 56.8401 287.596 56.8401H261.747C261.747 60.4263 262.958 63.2441 265.38 65.2933C267.802 67.296 271.179 68.2974 275.51 68.2974C278.165 68.2974 280.447 68.0179 282.356 67.459C284.266 66.8536 286.059 65.8988 287.736 64.5947C288.621 63.8495 289.342 63.4769 289.901 63.4769C290.32 63.4769 290.716 63.6632 291.089 64.0358C291.741 64.5947 292.067 65.1769 292.067 65.7824C292.067 66.2481 291.788 66.7604 291.229 67.3193C289.319 69.1357 287.084 70.4863 284.522 71.3712C281.96 72.2562 278.956 72.6986 275.51 72.6986ZM286.059 52.7183C286.897 52.7183 287.526 52.5553 287.945 52.2293C288.364 51.8567 288.574 51.2047 288.574 50.2732C288.574 48.5965 288.015 47.0829 286.897 45.7322C285.779 44.3816 284.196 43.3336 282.147 42.5885C280.144 41.8433 277.862 41.4707 275.3 41.4707C271.155 41.4707 267.872 42.4953 265.45 44.5446C263.075 46.5473 261.887 49.2718 261.887 52.7183H286.059ZM323.208 65.0837C323.72 65.5029 323.976 65.9919 323.976 66.5508C323.976 67.0166 323.766 67.5755 323.347 68.2275C322.369 69.5781 321.019 70.6726 319.295 71.511C317.572 72.3027 315.802 72.6986 313.986 72.6986C310.912 72.6986 308.49 71.7904 306.72 69.974C304.951 68.1576 304.066 65.6659 304.066 62.4989V42.0296H300.293C298.43 42.0296 297.499 41.3077 297.499 39.8639C297.499 39.2118 297.732 38.6995 298.197 38.3269C298.71 37.9543 299.408 37.768 300.293 37.768H304.066V25.8218C304.066 24.9369 304.275 24.2615 304.694 23.7958C305.16 23.2835 305.812 23.0273 306.651 23.0273C307.442 23.0273 308.048 23.2835 308.467 23.7958C308.933 24.2615 309.166 24.9369 309.166 25.8218V37.768H318.667C319.505 37.768 320.157 37.9543 320.623 38.3269C321.135 38.6529 321.391 39.1653 321.391 39.8639C321.391 41.3077 320.483 42.0296 318.667 42.0296H309.166V62.9181C309.166 66.5043 310.842 68.2974 314.196 68.2974C315.267 68.2974 316.245 68.0878 317.13 67.6686C318.015 67.2494 318.899 66.5741 319.784 65.6426C320.483 64.8974 321.158 64.5249 321.81 64.5249C322.23 64.5249 322.695 64.7112 323.208 65.0837ZM341.312 72C338.471 72 336.259 71.2548 334.675 69.7644C333.092 68.2275 332.3 66.1317 332.3 63.4769V25.193C332.3 24.3081 332.533 23.6328 332.999 23.1671C333.464 22.6547 334.093 22.3986 334.885 22.3986C335.723 22.3986 336.375 22.6547 336.841 23.1671C337.307 23.6328 337.539 24.3081 337.539 25.193V63.6167C337.539 64.8276 337.866 65.8056 338.518 66.5508C339.216 67.296 340.124 67.6686 341.242 67.6686H364.506C366.322 67.6686 367.23 68.3905 367.23 69.8343C367.23 70.5329 366.998 71.0685 366.532 71.4411C366.066 71.8137 365.391 72 364.506 72H341.312ZM379.034 29.6641C378.009 29.6641 377.124 29.3381 376.379 28.6861C375.68 27.9875 375.331 27.1491 375.331 26.1711C375.331 25.193 375.68 24.3547 376.379 23.6561C377.124 22.9575 378.009 22.6082 379.034 22.6082C380.058 22.6082 380.943 22.9808 381.688 23.7259C382.48 24.4246 382.876 25.2396 382.876 26.1711C382.876 27.1026 382.48 27.9176 381.688 28.6162C380.943 29.3148 380.058 29.6641 379.034 29.6641ZM379.034 72.6986C378.242 72.6986 377.613 72.4657 377.147 72C376.728 71.4877 376.519 70.7891 376.519 69.9042V39.8639C376.519 38.979 376.728 38.3036 377.147 37.8379C377.613 37.3256 378.242 37.0694 379.034 37.0694C379.872 37.0694 380.501 37.3256 380.92 37.8379C381.386 38.3036 381.619 38.979 381.619 39.8639V69.9042C381.619 70.7891 381.386 71.4877 380.92 72C380.501 72.4657 379.872 72.6986 379.034 72.6986ZM407.607 72.6986C404.347 72.6986 401.273 72.0931 398.385 70.8822C395.498 69.6247 393.216 67.9015 391.539 65.7125C391.213 65.2468 391.05 64.781 391.05 64.3153C391.05 63.8495 391.166 63.4537 391.399 63.1276C391.679 62.755 392.028 62.4756 392.447 62.2893C392.82 62.1496 393.122 62.0797 393.355 62.0797C393.774 62.0797 394.124 62.1962 394.403 62.429C394.729 62.6153 395.102 62.9413 395.521 63.4071C398.548 66.6207 402.577 68.2275 407.607 68.2275C410.029 68.2275 411.985 67.8083 413.475 66.97C414.966 66.1317 415.711 64.9673 415.711 63.4769C415.711 62.4057 415.408 61.5441 414.803 60.8921C414.244 60.1935 413.266 59.5647 411.869 59.0058C410.518 58.4004 408.282 57.562 405.162 56.4908C402.135 55.4662 399.759 54.4881 398.036 53.5567C396.313 52.6252 395.032 51.5773 394.194 50.4129C393.355 49.202 392.936 47.7349 392.936 46.0117C392.936 43.3104 394.1 41.1447 396.429 39.5146C398.804 37.8845 401.948 37.0694 405.86 37.0694C408.748 37.0694 411.426 37.5817 413.894 38.6064C416.363 39.5844 418.226 40.9118 419.483 42.5885C419.856 43.1008 420.042 43.5898 420.042 44.0555C420.042 44.7542 419.67 45.313 418.924 45.7322C418.459 46.0117 417.993 46.1514 417.527 46.1514C416.735 46.1514 415.99 45.8021 415.292 45.1035C414.081 43.8925 412.753 43.0076 411.31 42.4487C409.866 41.8433 408.026 41.5405 405.791 41.5405C403.322 41.5405 401.436 41.9364 400.132 42.7282C398.828 43.5199 398.176 44.6377 398.176 46.0815C398.176 47.1527 398.432 48.0143 398.944 48.6664C399.503 49.2718 400.365 49.8307 401.529 50.343C402.74 50.8088 404.836 51.5307 407.817 52.5087C411.17 53.6265 413.755 54.6977 415.571 55.7224C417.434 56.7004 418.761 57.7949 419.553 59.0058C420.392 60.2168 420.811 61.7071 420.811 63.4769C420.811 66.2714 419.577 68.5069 417.108 70.1836C414.686 71.8603 411.519 72.6986 407.607 72.6986ZM452.151 65.0837C452.663 65.5029 452.919 65.9919 452.919 66.5508C452.919 67.0166 452.709 67.5755 452.29 68.2275C451.312 69.5781 449.962 70.6726 448.238 71.511C446.515 72.3027 444.745 72.6986 442.929 72.6986C439.855 72.6986 437.433 71.7904 435.663 69.974C433.893 68.1576 433.009 65.6659 433.009 62.4989V42.0296H429.236C427.373 42.0296 426.442 41.3077 426.442 39.8639C426.442 39.2118 426.675 38.6995 427.14 38.3269C427.653 37.9543 428.351 37.768 429.236 37.768H433.009V25.8218C433.009 24.9369 433.218 24.2615 433.637 23.7958C434.103 23.2835 434.755 23.0273 435.593 23.0273C436.385 23.0273 436.991 23.2835 437.41 23.7958C437.876 24.2615 438.108 24.9369 438.108 25.8218V37.768H447.61C448.448 37.768 449.1 37.9543 449.566 38.3269C450.078 38.6529 450.334 39.1653 450.334 39.8639C450.334 41.3077 449.426 42.0296 447.61 42.0296H438.108V62.9181C438.108 66.5043 439.785 68.2974 443.138 68.2974C444.21 68.2974 445.188 68.0878 446.073 67.6686C446.958 67.2494 447.842 66.5741 448.727 65.6426C449.426 64.8974 450.101 64.5249 450.753 64.5249C451.172 64.5249 451.638 64.7112 452.151 65.0837Z" fill="#E68328"/>
<path d="M509.214 64.3828C510.883 64.3828 512.484 65.0459 513.664 66.2263C514.845 67.4067 515.508 69.0077 515.508 70.677C515.508 72.3464 514.845 73.9473 513.664 75.1277C512.484 76.3081 510.883 76.9713 509.214 76.9713C507.544 76.9713 505.943 76.3081 504.763 75.1277C503.583 73.9473 502.919 72.3464 502.919 70.677C502.919 67.1837 505.72 64.3828 509.214 64.3828ZM458.86 14.0287H469.151L472.109 20.323H518.655C519.49 20.323 520.29 20.6545 520.88 21.2447C521.471 21.8349 521.802 22.6354 521.802 23.4701C521.802 24.0051 521.645 24.5401 521.425 25.0437L510.158 45.4056C509.088 47.3253 507.011 48.6471 504.65 48.6471H481.204L478.372 53.7769L478.277 54.1546C478.277 54.3633 478.36 54.5634 478.508 54.7109C478.655 54.8585 478.856 54.9414 479.064 54.9414H515.508V61.2356H477.742C476.073 61.2356 474.472 60.5725 473.292 59.3921C472.111 58.2117 471.448 56.6107 471.448 54.9414C471.448 53.8399 471.731 52.8013 472.203 51.9201L476.484 44.2097L465.154 20.323H458.86V14.0287ZM477.742 64.3828C479.412 64.3828 481.013 65.0459 482.193 66.2263C483.373 67.4067 484.037 69.0077 484.037 70.677C484.037 72.3464 483.373 73.9473 482.193 75.1277C481.013 76.3081 479.412 76.9713 477.742 76.9713C476.073 76.9713 474.472 76.3081 473.292 75.1277C472.111 73.9473 471.448 72.3464 471.448 70.677C471.448 67.1837 474.249 64.3828 477.742 64.3828ZM506.067 42.3529L514.816 26.6172H475.036L482.463 42.3529H506.067Z" fill="#E68328"/>
</svg>
